# xmcd CD database file
#
# Track frame offsets:
#	150
#	41448
#	57776
#	63764
#	85913
#	100939
#	120042
#	123646
#	140835
#	168885
#	179618
#	195739
#
# Disc length: 2811 seconds
#
# Revision: 0
# Processed by: cddbd v1.5PL3 Copyright (c) Steve Scherf et al.
# Submitted via: CDex 1.51
#
DISCID=9f0af90c
DTITLE=John Kerr - Cathedral
DYEAR=1983
DGENRE=New Age
TTITLE0=Part I - Fond Farewell
TTITLE1=Part II - Gathering of the Spi
TTITLE2=Part III - Spirits of the Eart
TTITLE3=Part IV - Sunrise
TTITLE4=Part  V - Spring of Eternal Youth
TTITLE5=Part VI - The Mountain Sleeps
TTITLE6=Part VII - Goblin
TTITLE7=Part VIII - Edge of Eternity
TTITLE8=Part IX - For Ever and Ever
TTITLE9=Part IV (Reprise) Sunset
TTITLE10=Part X - I´m On My Way
TTITLE11=Part XI - Where My Heart Is
EXTD=YEAR: 1983
EXTT0=
EXTT1=
EXTT2=
EXTT3=
EXTT4=
EXTT5=
EXTT6=
EXTT7=
EXTT8=
EXTT9=
EXTT10=
EXTT11=
PLAYORDER=
